# xmcd
#
# Track frame offsets:
#	150
#	13897
#	26331
#	46170
#	60493
#	73392
#	73715
#	85716
#	100928
#	114805
#	133044
#	153581
#	154325
#
# Disc length: 2322 seconds
# Revision: 0
# Processed by: cddbd v1.5.2PL0 Copyright (c) Steve Scherf et al.
# Submitted via: dBpowerAMP V12.0
#
DISCID=a909100d
DTITLE=Ursala George feat. Marty Richards - I'm Drivin'
DYEAR=2011
DGENRE=Blues
TTITLE0=Caught Me Wrong Again
TTITLE1=A Man For Everyday In The Week
TTITLE2=Little Honey
TTITLE3=I'm A Mighty Tight Woman
TTITLE4=Honest I Do
TTITLE5=Oh Babe Hold On
TTITLE6=You Got To Know How
TTITLE7=Living With The Blues
TTITLE8=Don't You Get Me High
TTITLE9=You Need (a Whole Lotta) Love
TTITLE10=How Long Blues
TTITLE11=I Think That Was It
TTITLE12=Little Honey (Alt. Mix)
EXTD=
EXTT0=
EXTT1=
EXTT2=
EXTT3=
EXTT4=
EXTT5=
EXTT6=
EXTT7=
EXTT8=
EXTT9=
EXTT10=
EXTT11=
EXTT12=
PLAYORDER=
